<?xml version="1.0" encoding="UTF-8" standalone="no"?>
<!-- Created with Inkscape (http://www.inkscape.org/) -->

<svg
   width="512"
   height="512"
   viewBox="0 0 512 512"
   version="1.1"
   id="svg5"
   inkscape:version="1.2.1 (9c6d41e410, 2022-07-14, custom)"
   sodipodi:docname="ff_icon.svg"
   xmlns:inkscape="http://www.inkscape.org/namespaces/inkscape"
   xmlns:sodipodi="http://sodipodi.sourceforge.net/DTD/sodipodi-0.dtd"
   xmlns="http://www.w3.org/2000/svg"
   xmlns:svg="http://www.w3.org/2000/svg">
  <sodipodi:namedview
     id="namedview7"
     pagecolor="#ffffff"
     bordercolor="#666666"
     borderopacity="1.0"
     inkscape:showpageshadow="2"
     inkscape:pageopacity="0.0"
     inkscape:pagecheckerboard="0"
     inkscape:deskcolor="#d1d1d1"
     inkscape:document-units="px"
     showgrid="false"
     inkscape:zoom="1.1407621"
     inkscape:cx="341.00011"
     inkscape:cy="264.7353"
     inkscape:window-width="1920"
     inkscape:window-height="1012"
     inkscape:window-x="0"
     inkscape:window-y="0"
     inkscape:window-maximized="1"
     inkscape:current-layer="layer3" />
  <defs
     id="defs2" />
  <g
     inkscape:label="Hintergrund"
     inkscape:groupmode="layer"
     id="layer1"
     sodipodi:insensitive="true">
    <rect
       style="fill:#70c3ff;fill-opacity:1;stroke-width:3.06715;stroke-miterlimit:2.61313"
       id="rect111"
       width="512"
       height="510.74146"
       x="0"
       y="0" />
  </g>
  <g
     inkscape:groupmode="layer"
     id="layer2"
     inkscape:label="Fridge"
     sodipodi:insensitive="true">
    <path
       style="fill:none;stroke:#ffffff;stroke-width:15;stroke-linecap:butt;stroke-linejoin:miter;stroke-dasharray:none;stroke-opacity:1"
       d="m 122.58399,457.54357 c 0,0 -38.977073,-197.80694 -35.780524,-261.75864 1.24574,-24.92287 6.42168,-48.63915 12.275313,-68.30408 9.166701,-30.794972 19.995311,-51.654789 19.995311,-51.654789 0,0 100.19465,-21.737347 151.09935,-22.190752 49.84285,-0.443947 148.31104,19.089107 148.31104,19.089107 0,0 17.79494,81.897864 15.85393,146.303194 -1.941,64.40533 -40.08518,236.06864 -40.08518,236.06864 l -24.33473,1.52036 0.80171,21.65734 -11.94324,-0.37041 c -1.50856,-7.25824 -4.42819,-9.42222 -4.1168,-22.91387 0,0 -68.73227,8.3363 -98.48715,8.81404 -29.75487,0.47774 -76.81878,-2.95034 -76.81878,-2.95034 l -0.76007,20.81074 -19.00714,2.09008 1.96536,-24.26084 z"
       id="path5231"
       sodipodi:nodetypes="csscsczccccczccccc" />
    <path
       style="fill:none;stroke:#ffffff;stroke-width:15;stroke-linecap:butt;stroke-linejoin:miter;stroke-dasharray:none;stroke-opacity:1"
       d="m 90.683829,204.09117 c 0,0 108.341671,6.89527 161.483171,5.33711 53.1415,-1.55817 180.11107,-16.93529 180.11107,-16.93529"
       id="path5329"
       sodipodi:nodetypes="czc" />
    <rect
       style="fill:#ffffff;fill-opacity:1;stroke:#ffffff;stroke-width:15;stroke-miterlimit:2.61313;stroke-dasharray:none"
       id="rect5383"
       width="47.36171"
       height="14.090986"
       x="130.64062"
       y="281.45093" />
    <rect
       style="fill:#ffffff;fill-opacity:1;stroke:#ffffff;stroke-width:15;stroke-miterlimit:2.61313;stroke-dasharray:none"
       id="rect5385"
       width="33.708412"
       height="11.590082"
       x="137.52478"
       y="133.77252" />
  </g>
  <g
     inkscape:groupmode="layer"
     id="layer3"
     inkscape:label="Text">
    <text
       xml:space="preserve"
       style="font-style:normal;font-variant:normal;font-weight:bold;font-stretch:normal;font-size:123.433px;line-height:1.25;font-family:'Playfair Display';-inkscape-font-specification:'Playfair Display Bold';fill:#ffffff;fill-opacity:1;stroke:none;stroke-width:0.642881"
       x="191.38576"
       y="387.06189"
       id="text794"><tspan
         sodipodi:role="line"
         id="tspan792"
         x="191.38576"
         y="387.06189"
         style="stroke-width:0.642881">FF</tspan></text>
  </g>
</svg>
